<?xml version="1.0" encoding="utf-8"?>
<!-- Generator: Adobe Illustrator 18.1.1, SVG Export Plug-In . SVG Version: 6.00 Build 0)  -->
<svg version="1.1" id="Layer_1" xmlns="http://www.w3.org/2000/svg" xmlns:xlink="http://www.w3.org/1999/xlink" x="0px" y="0px"
	 viewBox="0 0 500 500" enable-background="new 0 0 500 500" xml:space="preserve">
<path fill="#206CF2" d="M443.3,183.3L391.7,56.7l-40,18.3c-1.7-5-6.7-8.3-13.3-10c-15-5-30,5-30,5L240,101.7l-1.7,1.7
	c-21.7-10-48.3-8.3-66.7-5L133.3,65L56.7,176.7l40,30h1.7c1.7,3.3,3.3,6.7,5,8.3l25,31.7c-5,10-3.3,21.7,6.7,30l75,61.7
	c5,3.3,10,5,15,5c1.7,0,5,0,6.7-1.7l30-5l0,0l1.7,1.7c5,3.3,10,5,15,5h1.7c41.7-1.7,96.7-46.7,106.7-61.7c6.7-10,5-23.3-3.3-31.7
	l-6.7-6.7l23.3-25c5-5,8.3-13.3,6.7-20L443.3,183.3z M423.3,175l-21.7,8.3c-10-23.3-30-71.7-40-95L385,76.7L423.3,175z M136.7,88.3
	l20,16.7c-1.7,0-3.3,1.7-3.3,3.3l-53.3,75c-1.7,1.7-1.7,3.3-1.7,5l-20-15L136.7,88.3z M226.7,326.7c-3.3,1.7-5,0-8.3-1.7l-75-61.7
	c-3.3-3.3-3.3-8.3,0-13.3l10-20c1.7-1.7,5-3.3,6.7-3.3c13.3,1.7,43.3,13.3,76.7,58.3c1.7,3.3,1.7,6.7,0,10l-10,13.3
	c-3.3,3.3-1.7,8.3,1.7,11.7c3.3,1.7,8.3,1.7,10-1.7l5,5L226.7,326.7z M373.3,271.7c-1.7,3.3-8.3,10-18.3,18.3l-35-36.7
	c-3.3-3.3-8.3-3.3-11.7,0c-3.3,3.3-3.3,8.3,0,11.7l35,35c-8.3,5-16.7,10-25,15l-21.7-16.7c-3.3-3.3-8.3-1.7-11.7,1.7
	c-3.3,3.3-1.7,8.3,1.7,11.7l15,11.7c-8.3,3.3-15,5-23.3,5c-1.7,0-5,0-6.7-1.7l-23.3-18.3v-1.7c6.7-8.3,6.7-20,0-28.3
	c-38.3-50-71.7-61.7-88.3-65c-8.3-1.7-16.7,1.7-23.3,10l-3.3,8.3L111.7,205c-3.3-3.3-3.3-8.3-1.7-11.7l55-76.7
	c1.7-1.7,5-3.3,6.7-3.3c11.7-1.7,36.7-5,56.7,1.7l-31.7,68.3c-5,11.7,0,26.7,11.7,33.3c20,10,38.3,3.3,50-16.7c1.7-1.7,3.3-5,5-8.3
	C266.7,185,275,170,280,165l91.7,95C376.7,263.3,376.7,268.3,373.3,271.7z M390,208.3l-23.3,23.3l-78.3-80c-1.7-1.7-5-3.3-6.7-3.3
	H280c-8.3,1.7-16.7,11.7-30,36.7c-1.7,3.3-3.3,5-5,6.7c-8.3,13.3-18.3,16.7-30,11.7c-5-1.7-6.7-8.3-3.3-11.7l31.7-70
	c0-3.3,1.7-5,5-5L316.7,85c0,0,10-6.7,18.3-3.3c3.3,1.7,6.7,5,10,10c10,21.7,38.3,88.3,46.7,106.7C391.7,201.7,391.7,205,390,208.3z
	"/>
<text transform="matrix(1 0 0 1 49.9897 649.9946)" font-family="'HelveticaNeue-Bold'" font-size="83.3333">Created by Iconographer</text>
<text transform="matrix(1 0 0 1 49.9897 733.3406)" font-family="'HelveticaNeue-Bold'" font-size="83.3333">from the Noun Project</text>
</svg>
