<?xml version="1.0" encoding="utf-8"?>
<!-- Generator: Adobe Illustrator 18.1.1, SVG Export Plug-In . SVG Version: 6.00 Build 0)  -->
<svg version="1.1" id="Layer_1" xmlns="http://www.w3.org/2000/svg" xmlns:xlink="http://www.w3.org/1999/xlink" x="0px" y="0px"
	 viewBox="0 0 500 403" enable-background="new 0 0 500 403" xml:space="preserve">
<g>
	<path fill="#FF9906" d="M250,10C145,10,60,95,60,200s85,190,190,190s190-85,190-190S355,10,250,10z M250,373.3
		c-96.7,0-173.3-76.7-173.3-173.3S153.3,26.7,250,26.7S423.3,103.3,423.3,200S346.7,373.3,250,373.3z"/>
	<path fill="#FF9906" d="M393.3,141.7c0-13.3-6.7-40-31.7-50c-5-1.7-10-1.7-13.3,0c-6.7,1.7-11.7,8.3-18.3,15c-1.7-1.7-3.3-3.3-5-5
		c-21.7-16.7-48.3-25-75-25c-66.7,0-123.3,55-123.3,123.3s55,123.3,123.3,123.3s123.3-55,123.3-123.3c0-13.3-1.7-26.7-6.7-38.3
		C393.3,153.3,393.3,145,393.3,141.7z M358.3,200c0,60-48.3,106.7-106.7,106.7S143.3,260,143.3,200S191.7,93.3,250,93.3
		c23.3,0,46.7,8.3,65,21.7c1.7,1.7,5,3.3,6.7,5c-8.3,13.3-15,30-18.3,36.7l-16.7,11.7C278.3,156.7,265,150,250,150
		c-26.7,0-50,21.7-50,50c0,26.7,21.7,50,50,50c26.7,0,50-21.7,50-50c0-6.7-1.7-13.3-3.3-18.3l15-11.7c16.7-1.7,30-3.3,40-6.7
		C355,176.7,358.3,188.3,358.3,200z M246.7,206.7c1.7,1.7,3.3,3.3,6.7,3.3c1.7,0,3.3,0,5-1.7l25-16.7c0,3.3,1.7,6.7,1.7,8.3
		c0,18.3-15,33.3-33.3,33.3s-33.3-15-33.3-33.3s15-33.3,33.3-33.3c10,0,18.3,5,25,11.7l-25,18.3C245,198.3,245,203.3,246.7,206.7z
		 M321.7,153.3c10-20,23.3-43.3,31.7-46.7h1.7l0,0c16.7,6.7,21.7,25,21.7,35C373.3,145,350,150,321.7,153.3z"/>
</g>
<text transform="matrix(1 0 0 1 49.9897 733.3406)" font-family="'HelveticaNeue-Bold'" font-size="83.3333">from the Noun Project</text>
</svg>
